<?xml version="1.0" encoding="UTF-8"?>
<svg width="113px" height="16px" viewBox="0 0 113 16" version="1.1" xmlns="http://www.w3.org/2000/svg" xmlns:xlink="http://www.w3.org/1999/xlink">
    <title>DrawingWinner</title>
    <defs>
        <linearGradient x1="9.15290384e-15%" y1="50%" x2="100%" y2="50%" id="linearGradient-1">
            <stop stop-color="#50F8D2" offset="0%">
                <animate attributeName="stop-color" values="#50F8D2; #F87D50; #D80F90; #50F8D2" dur="4s" repeatCount="indefinite"></animate>
            </stop>
            <stop stop-color="#F87D50" offset="25.5001773%">
                <animate attributeName="stop-color" values="#F87D50; #D80F90; #50F8D2; #F87D50" dur="4s" repeatCount="indefinite"></animate>
            </stop>
            <stop stop-color="#F87D50" offset="66.9111342%">
                <animate attributeName="stop-color" values="#F87D50; #D80F90; #50F8D2; #F87D50" dur="4s" repeatCount="indefinite"></animate>
            </stop>
            <stop stop-color="#D80F90" offset="99.9371722%">
                <animate attributeName="stop-color" values="#D80F90; #50F8D2; #F87D50; #D80F90" dur="4s" repeatCount="indefinite"></animate>
            </stop>
        </linearGradient>
    </defs>
    <g id="Cards" stroke="none" stroke-width="1" fill="none" fill-rule="evenodd">
        <g id="Card/Win/Drawing-User" transform="translate(-117, -328)" fill="url(#linearGradient-1)" fill-rule="nonzero">
            <g id="Core" transform="translate(45.5698, 57.5698)">
                <g id="DrawingWinner" transform="translate(71.5072, 271.2162)">
                    <path d="M3.682,1.386 C4.718,1.386 5.62333333,1.59133333 6.398,2.002 C7.17266667,2.41266667 7.77233333,2.989 8.197,3.731 C8.62166667,4.473 8.834,5.32933333 8.834,6.3 C8.834,7.26133333 8.62166667,8.11533333 8.197,8.862 C7.77233333,9.60866667 7.17033333,10.1873333 6.391,10.598 C5.61166667,11.0086667 4.70866667,11.214 3.682,11.214 L0,11.214 L0,1.386 L3.682,1.386 Z M3.528,9.142 C4.43333333,9.142 5.138,8.89466667 5.642,8.4 C6.146,7.90533333 6.398,7.20533333 6.398,6.3 C6.398,5.39466667 6.146,4.69 5.642,4.186 C5.138,3.682 4.43333333,3.43 3.528,3.43 L2.394,3.43 L2.394,9.142 L3.528,9.142 Z M12.572,4.704 C12.852,4.27466667 13.202,3.93633333 13.622,3.689 C14.042,3.44166667 14.5086667,3.318 15.022,3.318 L15.022,5.852 L14.364,5.852 C13.7666667,5.852 13.3186667,5.98033333 13.02,6.237 C12.7213333,6.49366667 12.572,6.944 12.572,7.588 L12.572,11.214 L10.178,11.214 L10.178,3.402 L12.572,3.402 L12.572,4.704 Z M15.694,7.294 C15.694,6.49133333 15.8456667,5.78666667 16.149,5.18 C16.4523333,4.57333333 16.8653333,4.10666667 17.388,3.78 C17.9106667,3.45333333 18.494,3.29 19.138,3.29 C19.6886667,3.29 20.1716667,3.402 20.587,3.626 C21.0023333,3.85 21.322,4.144 21.546,4.508 L21.546,3.402 L23.94,3.402 L23.94,11.214 L21.546,11.214 L21.546,10.108 C21.3126667,10.472 20.9883333,10.766 20.573,10.99 C20.1576667,11.214 19.6746667,11.326 19.124,11.326 C18.4893333,11.326 17.9106667,11.1603333 17.388,10.829 C16.8653333,10.4976667 16.4523333,10.0263333 16.149,9.415 C15.8456667,8.80366667 15.694,8.09666667 15.694,7.294 Z M21.546,7.308 C21.546,6.71066667 21.3803333,6.23933333 21.049,5.894 C20.7176667,5.54866667 20.314,5.376 19.838,5.376 C19.362,5.376 18.9583333,5.54633333 18.627,5.887 C18.2956667,6.22766667 18.13,6.69666667 18.13,7.294 C18.13,7.89133333 18.2956667,8.365 18.627,8.715 C18.9583333,9.065 19.362,9.24 19.838,9.24 C20.314,9.24 20.7176667,9.06733333 21.049,8.722 C21.3803333,8.37666667 21.546,7.90533333 21.546,7.308 Z M36.89,3.402 L34.776,11.214 L32.13,11.214 L30.898,6.146 L29.624,11.214 L26.992,11.214 L24.864,3.402 L27.258,3.402 L28.364,8.988 L29.68,3.402 L32.214,3.402 L33.544,8.96 L34.636,3.402 L36.89,3.402 Z M39.004,2.59 C38.584,2.59 38.241,2.46633333 37.975,2.219 C37.709,1.97166667 37.576,1.666 37.576,1.302 C37.576,0.928666667 37.709,0.618333333 37.975,0.371 C38.241,0.123666667 38.584,0 39.004,0 C39.4146667,0 39.753,0.123666667 40.019,0.371 C40.285,0.618333333 40.418,0.928666667 40.418,1.302 C40.418,1.666 40.285,1.97166667 40.019,2.219 C39.753,2.46633333 39.4146667,2.59 39.004,2.59 Z M40.194,3.402 L40.194,11.214 L37.8,11.214 L37.8,3.402 L40.194,3.402 Z M46.69,3.318 C47.6046667,3.318 48.335,3.61433333 48.881,4.207 C49.427,4.79966667 49.7,5.614 49.7,6.65 L49.7,11.214 L47.32,11.214 L47.32,6.972 C47.32,6.44933333 47.1846667,6.04333333 46.914,5.754 C46.6433333,5.46466667 46.2793333,5.32 45.822,5.32 C45.3646667,5.32 45.0006667,5.46466667 44.73,5.754 C44.4593333,6.04333333 44.324,6.44933333 44.324,6.972 L44.324,11.214 L41.93,11.214 L41.93,3.402 L44.324,3.402 L44.324,4.438 C44.5666667,4.09266667 44.8933333,3.81966667 45.304,3.619 C45.7146667,3.41833333 46.1766667,3.318 46.69,3.318 Z M54.334,3.29 C54.8846667,3.29 55.3676667,3.402 55.783,3.626 C56.1983333,3.85 56.518,4.144 56.742,4.508 L56.742,3.402 L59.136,3.402 L59.136,11.2 C59.136,11.9186667 58.9936667,12.5696667 58.709,13.153 C58.4243333,13.7363333 57.9903333,14.2006667 57.407,14.546 C56.8236667,14.8913333 56.098,15.064 55.23,15.064 C54.0726667,15.064 53.1346667,14.791 52.416,14.245 C51.6973333,13.699 51.2866667,12.9593333 51.184,12.026 L53.55,12.026 C53.6246667,12.3246667 53.802,12.5603333 54.082,12.733 C54.362,12.9056667 54.7073333,12.992 55.118,12.992 C55.6126667,12.992 56.007,12.8496667 56.301,12.565 C56.595,12.2803333 56.742,11.8253333 56.742,11.2 L56.742,10.094 C56.5086667,10.458 56.1866667,10.7543333 55.776,10.983 C55.3653333,11.2116667 54.8846667,11.326 54.334,11.326 C53.69,11.326 53.1066667,11.1603333 52.584,10.829 C52.0613333,10.4976667 51.6483333,10.0263333 51.345,9.415 C51.0416667,8.80366667 50.89,8.09666667 50.89,7.294 C50.89,6.49133333 51.0416667,5.78666667 51.345,5.18 C51.6483333,4.57333333 52.0613333,4.10666667 52.584,3.78 C53.1066667,3.45333333 53.69,3.29 54.334,3.29 Z M56.742,7.308 C56.742,6.71066667 56.5763333,6.23933333 56.245,5.894 C55.9136667,5.54866667 55.51,5.376 55.034,5.376 C54.558,5.376 54.1543333,5.54633333 53.823,5.887 C53.4916667,6.22766667 53.326,6.69666667 53.326,7.294 C53.326,7.89133333 53.4916667,8.365 53.823,8.715 C54.1543333,9.065 54.558,9.24 55.034,9.24 C55.51,9.24 55.9136667,9.06733333 56.245,8.722 C56.5763333,8.37666667 56.742,7.90533333 56.742,7.308 Z M75.054,3.402 L72.94,11.214 L70.294,11.214 L69.062,6.146 L67.788,11.214 L65.156,11.214 L63.028,3.402 L65.422,3.402 L66.528,8.988 L67.844,3.402 L70.378,3.402 L71.708,8.96 L72.8,3.402 L75.054,3.402 Z M77.168,2.59 C76.748,2.59 76.405,2.46633333 76.139,2.219 C75.873,1.97166667 75.74,1.666 75.74,1.302 C75.74,0.928666667 75.873,0.618333333 76.139,0.371 C76.405,0.123666667 76.748,0 77.168,0 C77.5786667,0 77.917,0.123666667 78.183,0.371 C78.449,0.618333333 78.582,0.928666667 78.582,1.302 C78.582,1.666 78.449,1.97166667 78.183,2.219 C77.917,2.46633333 77.5786667,2.59 77.168,2.59 Z M78.358,3.402 L78.358,11.214 L75.964,11.214 L75.964,3.402 L78.358,3.402 Z M84.854,3.318 C85.7686667,3.318 86.499,3.61433333 87.045,4.207 C87.591,4.79966667 87.864,5.614 87.864,6.65 L87.864,11.214 L85.484,11.214 L85.484,6.972 C85.484,6.44933333 85.3486667,6.04333333 85.078,5.754 C84.8073333,5.46466667 84.4433333,5.32 83.986,5.32 C83.5286667,5.32 83.1646667,5.46466667 82.894,5.754 C82.6233333,6.04333333 82.488,6.44933333 82.488,6.972 L82.488,11.214 L80.094,11.214 L80.094,3.402 L82.488,3.402 L82.488,4.438 C82.7306667,4.09266667 83.0573333,3.81966667 83.468,3.619 C83.8786667,3.41833333 84.3406667,3.318 84.854,3.318 Z M94.29,3.318 C95.2046667,3.318 95.935,3.61433333 96.481,4.207 C97.027,4.79966667 97.3,5.614 97.3,6.65 L97.3,11.214 L94.92,11.214 L94.92,6.972 C94.92,6.44933333 94.7846667,6.04333333 94.514,5.754 C94.2433333,5.46466667 93.8793333,5.32 93.422,5.32 C92.9646667,5.32 92.6006667,5.46466667 92.33,5.754 C92.0593333,6.04333333 91.924,6.44933333 91.924,6.972 L91.924,11.214 L89.53,11.214 L89.53,3.402 L91.924,3.402 L91.924,4.438 C92.1666667,4.09266667 92.4933333,3.81966667 92.904,3.619 C93.3146667,3.41833333 93.7766667,3.318 94.29,3.318 Z M106.33,7.182 C106.33,7.406 106.316,7.63933333 106.288,7.882 L100.87,7.882 C100.907333,8.36733333 101.063667,8.73833333 101.339,8.995 C101.614333,9.25166667 101.952667,9.38 102.354,9.38 C102.951333,9.38 103.366667,9.128 103.6,8.624 L106.148,8.624 C106.017333,9.13733333 105.781667,9.59933333 105.441,10.01 C105.100333,10.4206667 104.673333,10.7426667 104.16,10.976 C103.646667,11.2093333 103.072667,11.326 102.438,11.326 C101.672667,11.326 100.991333,11.1626667 100.394,10.836 C99.7966667,10.5093333 99.33,10.0426667 98.994,9.436 C98.658,8.82933333 98.49,8.12 98.49,7.308 C98.49,6.496 98.6556667,5.78666667 98.987,5.18 C99.3183333,4.57333333 99.7826667,4.10666667 100.38,3.78 C100.977333,3.45333333 101.663333,3.29 102.438,3.29 C103.194,3.29 103.866,3.44866667 104.454,3.766 C105.042,4.08333333 105.501667,4.536 105.833,5.124 C106.164333,5.712 106.33,6.398 106.33,7.182 Z M103.88,6.552 C103.88,6.14133333 103.74,5.81466667 103.46,5.572 C103.18,5.32933333 102.83,5.208 102.41,5.208 C102.008667,5.208 101.670333,5.32466667 101.395,5.558 C101.119667,5.79133333 100.949333,6.12266667 100.884,6.552 L103.88,6.552 Z M109.984,4.704 C110.264,4.27466667 110.614,3.93633333 111.034,3.689 C111.454,3.44166667 111.920667,3.318 112.434,3.318 L112.434,5.852 L111.776,5.852 C111.178667,5.852 110.730667,5.98033333 110.432,6.237 C110.133333,6.49366667 109.984,6.944 109.984,7.588 L109.984,11.214 L107.59,11.214 L107.59,3.402 L109.984,3.402 L109.984,4.704 Z" id="Combined-Shape"></path>
                </g>
            </g>
        </g>
    </g>
</svg>