<?xml version="1.0" encoding="UTF-8"?>
<svg width="60px" height="60px" viewBox="0 0 60 60" version="1.1" xmlns="http://www.w3.org/2000/svg" xmlns:xlink="http://www.w3.org/1999/xlink">
    <title>Icon/winner</title>
    <defs>
        <polygon id="path-1" points="0 60 56 60 56 0 0 0"></polygon>
    </defs>
    <g id="Icon/winner" stroke="none" stroke-width="1" fill="none" fill-rule="evenodd">
        <g id="Icon" transform="translate(2, 0)">
            <path d="M28.0000284,2.1537865 C12.5359958,2.1537865 0,14.628505 0,30.0168912 C0,45.4053906 12.5359958,57.8800524 28.0000284,57.8800524 C43.4640611,57.8800524 56,45.4053906 56,30.0168912 C56,14.628505 43.4640611,2.1537865 28.0000284,2.1537865" id="Fill-1" fill="#EAF3F0"></path>
            <path d="M45.2730685,14.6118459 L43.0696743,14.6118459 L43.7447713,8.06329655 L45.2730685,8.06329655 C47.0759437,8.06329655 48.5634552,9.5435369 48.5634552,11.3375429 C48.5634552,13.1316621 47.0759437,14.6118459 45.2730685,14.6118459 L45.2730685,14.6118459 Z M10.6814017,14.6118459 C8.87852647,14.6118459 7.391015,13.1316621 7.391015,11.3375429 C7.391015,9.5435369 8.87852647,8.06329655 10.6814017,8.06329655 L12.2096989,8.06329655 L12.8847959,14.6118459 L10.6814017,14.6118459 Z M45.2730685,4.64283753 L44.0974509,4.64283753 L44.5761281,3.39634497e-05 L11.3783421,3.39634497e-05 L11.8570193,4.64283753 L10.6814017,4.64283753 C6.98116719,4.64283753 3.95375428,7.65539552 3.95375428,11.3375429 C3.95375428,15.0196903 6.98116719,18.0323615 10.6814017,18.0323615 L13.2375892,18.0323615 L13.8407851,23.883245 C14.5868162,31.1196674 19.2367258,35.3597777 24.5628701,36.6121233 L24.5628701,44.8801854 L31.437164,44.8801854 L31.437164,36.5991039 C36.7449917,35.3288143 41.3706689,31.090572 42.113742,23.883245 L42.716881,18.0323615 L45.2730685,18.0323615 C48.973303,18.0323615 52.0007159,15.0196903 52.0007159,11.3375429 C52.0007159,7.65539552 48.973303,4.64283753 45.2730685,4.64283753 L45.2730685,4.64283753 Z" id="Fill-3" fill="#E4AC3E"></path>
            <path d="M45.2730685,14.6118459 L43.0696743,14.6118459 L43.7447713,8.06329655 L45.2730685,8.06329655 C47.0759437,8.06329655 48.5634552,9.5435369 48.5634552,11.3375429 C48.5634552,13.1316621 47.0759437,14.6118459 45.2730685,14.6118459 M45.2730685,4.64283753 L44.0974509,4.64283753 L44.5761281,3.39634497e-05 L28.0000171,3.39634497e-05 L28.0000171,44.8801854 L31.437164,44.8801854 L31.437164,36.5991039 C36.7449917,35.3288143 41.3706689,31.090572 42.113742,23.883245 L42.716881,18.0323615 L45.2730685,18.0323615 C48.973303,18.0323615 52.0007159,15.0196903 52.0007159,11.3375429 C52.0007159,7.65539552 48.973303,4.64283753 45.2730685,4.64283753" id="Fill-5" fill="#D69F30"></path>
            <polygon id="Fill-7" fill="#030303" points="39.5686469 44.8801968 16.4313873 44.8801968 16.4313873 46.8823421 13.1619338 46.8823421 13.1619338 59.9999887 42.8381004 59.9999887 42.8381004 46.8823421 39.5686469 46.8823421"></polygon>
            <mask id="mask-2" fill="white">
                <use xlink:href="#path-1"></use>
            </mask>
            <g id="Clip-10"></g>
        </g>
    </g>
</svg>