<?xml version="1.0" encoding="UTF-8"?>
<svg width="30px" height="30px" viewBox="0 0 30 30" version="1.1" xmlns="http://www.w3.org/2000/svg" xmlns:xlink="http://www.w3.org/1999/xlink">
    <title>Icon/chain-polygon</title>
    <g id="Icon/chain-polygon" stroke="none" stroke-width="1" fill="none" fill-rule="evenodd">
        <circle id="BG" fill="#8247E5" fill-rule="nonzero" cx="15" cy="15" r="15"></circle>
        <path d="M20.0150131,12.0222552 C19.6586162,11.8175074 19.2003916,11.8175074 18.7930809,12.0222552 L15.941906,13.7114243 L14.0071802,14.7863501 L11.2069191,16.4755193 C10.8505222,16.6802671 10.3922977,16.6802671 9.98498695,16.4755193 L7.79569191,15.1446588 C7.43929504,14.939911 7.18472585,14.5304154 7.18472585,14.0697329 L7.18472585,11.5103858 C7.18472585,11.1008902 7.3883812,10.6913947 7.79569191,10.4354599 L9.98498695,9.15578635 C10.3413838,8.95103858 10.7996084,8.95103858 11.2069191,9.15578635 L13.3962141,10.4866469 C13.752611,10.6913947 14.0071802,11.1008902 14.0071802,11.5615727 L14.0071802,13.2507418 L15.941906,12.1246291 L15.941906,10.384273 C15.941906,9.97477745 15.7382507,9.5652819 15.3309399,9.30934718 L11.2578329,6.90356083 C10.901436,6.69881306 10.4432115,6.69881306 10.0359008,6.90356083 L5.86096606,9.36053412 C5.45365535,9.5652819 5.25,9.97477745 5.25,10.384273 L5.25,15.1958457 C5.25,15.6053412 5.45365535,16.0148368 5.86096606,16.2707715 L9.98498695,18.6765579 C10.3413838,18.8813056 10.7996084,18.8813056 11.2069191,18.6765579 L14.0071802,17.0385757 L15.941906,15.9124629 L18.7421671,14.2744807 C19.098564,14.0697329 19.5567885,14.0697329 19.9640992,14.2744807 L22.1533943,15.5541543 C22.5097911,15.7589021 22.7643603,16.1683976 22.7643603,16.6290801 L22.7643603,19.1884273 C22.7643603,19.5979228 22.560705,20.0074184 22.1533943,20.2633531 L20.0150131,21.5430267 C19.6586162,21.7477745 19.2003916,21.7477745 18.7930809,21.5430267 L16.6037859,20.2633531 C16.247389,20.0586053 15.9928198,19.6491098 15.9928198,19.1884273 L15.9928198,17.5504451 L14.058094,18.6765579 L14.058094,20.365727 C14.058094,20.7752226 14.2617493,21.1847181 14.6690601,21.4406528 L18.7930809,23.8464392 C19.1494778,24.0511869 19.6077023,24.0511869 20.0150131,23.8464392 L24.1390339,21.4406528 C24.4954308,21.235905 24.75,20.8264095 24.75,20.365727 L24.75,15.5029674 C24.75,15.0934718 24.5463446,14.6839763 24.1390339,14.4280415 L20.0150131,12.0222552 Z" id="Path" fill="#FFFFFF" fill-rule="nonzero"></path>
    </g>
</svg>