<?xml version="1.0" encoding="UTF-8"?>
<svg width="30px" height="30px" viewBox="0 0 30 30" version="1.1" xmlns="http://www.w3.org/2000/svg" xmlns:xlink="http://www.w3.org/1999/xlink">
    <title>Icon/chain-bsc</title>
    <g id="Icon/chain-bsc" stroke="none" stroke-width="1" fill="none" fill-rule="evenodd">
        <circle id="BG" fill="#F3BA2F" cx="15" cy="15" r="15"></circle>
        <path d="M18.8903337,16.5951452 L21.1530125,18.851322 L15.0021673,24.9956653 L8.85782399,18.851322 L11.1205028,16.5951452 L15.0021673,20.4768097 L18.8903337,16.5951452 Z M15.0021673,12.7069787 L17.2973559,15.0021673 L17.2973559,15.0021673 L17.2973559,15.0021673 L15.0021673,17.2973559 L12.7134807,15.0086692 L12.7134807,15.0021673 L12.7134807,15.0021673 L13.1166016,14.5990464 L13.3116601,14.4039878 L15.0021673,12.7069787 Z M7.2648461,12.7394885 L9.5275249,15.0021673 L7.2648461,17.2583441 L5.0021673,14.9956653 L7.2648461,12.7394885 Z M22.7394885,12.7394885 L25.0021673,15.0021673 L22.7394885,17.2583441 L20.4768097,14.9956653 L22.7394885,12.7394885 Z M15.0021673,5.0021673 L21.1465106,11.1465106 L18.8838318,13.4091894 L15.0021673,9.52102295 L11.1205028,13.4026875 L8.85782399,11.1465106 L15.0021673,5.0021673 Z" id="Combined-Shape" fill="#131415"></path>
    </g>
</svg>