<?xml version="1.0" encoding="UTF-8"?>
<svg width="30px" height="30px" viewBox="0 0 30 30" version="1.1" xmlns="http://www.w3.org/2000/svg" xmlns:xlink="http://www.w3.org/1999/xlink">
    <title>Icon/copy</title>
    <g id="Icon/copy" stroke="none" stroke-width="1" fill="none" fill-rule="evenodd">
        <path d="M17.8287382,10.991458 C18.8763571,10.991458 19.7142553,11.8436501 19.7408544,12.9091565 L19.7398329,25.082301 C19.7398329,26.147808 18.8753357,27 17.8543238,27 L5.88550997,27 C4.83788847,27 4,26.1207441 4,25.082301 L4,12.9091565 C4,11.8436501 4.83788847,10.991458 5.88550997,10.991458 Z M17.8555023,12.6156867 L5.88668854,12.6156867 C5.72912627,12.6156867 5.59817358,12.7488857 5.59817358,12.9091272 L5.59715215,25.0553677 C5.59715215,25.2156198 5.72811531,25.3488081 5.88566711,25.3488081 L17.8544809,25.3498497 C18.0120432,25.3498497 18.1429959,25.2166507 18.1429959,25.0564092 L18.1440173,12.9091272 C18.1440173,12.748875 18.0130541,12.6156867 17.8555023,12.6156867 Z M24.1144908,3 C25.1621123,3 26,3.85219204 26,4.91769846 L26,17.0650045 C26,18.1305109 25.1355027,18.9827029 24.1144908,18.9827029 L21.2856508,18.9827029 L21.2856508,17.3844433 L24.1144908,17.3844433 C24.2720531,17.3844433 24.4030058,17.2512443 24.4030058,17.0910028 L24.4030058,4.91785829 C24.4030058,4.75760612 24.2720426,4.62441782 24.1144908,4.62441782 L12.145677,4.62441782 C11.9881148,4.62441782 11.8571621,4.75761678 11.8571621,4.91785829 L11.8571621,9.39325165 L10.2857298,9.39325165 L10.2857298,4.91785829 C10.2857298,3.85235186 11.1236175,3 12.171239,3 Z" id="Combined-Shape" fill="#888888"></path>
    </g>
</svg>