<?xml version="1.0" encoding="UTF-8"?>
<svg width="18px" height="18px" viewBox="0 0 18 18" version="1.1" xmlns="http://www.w3.org/2000/svg" xmlns:xlink="http://www.w3.org/1999/xlink">
    <title>Icon/expiration</title>
    <g id="Icon/expiration" stroke="none" stroke-width="1" fill="none" fill-rule="evenodd">
        <path d="M9,17.5 C6.74546,17.5 4.5834,16.604185 2.98965,15.01035 C1.3959,13.416515 0.5,11.25437 0.5,9 C0.5,6.74563 1.395815,4.5834 2.98965,2.98965 C4.583485,1.3959 6.74563,0.5 9,0.5 C11.25437,0.5 13.4166,1.395815 15.01035,2.98965 C16.6041,4.583485 17.5,6.74563 17.5,9 C17.5,11.25437 16.604185,13.4166 15.01035,15.01035 C13.416515,16.6041 11.25437,17.5 9,17.5 Z M9,1.91644 C7.12133,1.91644 5.31984,2.662842 3.99163,3.99163 C2.662842,5.319755 1.91644,7.12133 1.91644,9 C1.91644,10.87867 2.662842,12.68016 3.99163,14.00837 C5.319755,15.337158 7.12133,16.0835602 9,16.0835602 C10.87867,16.0835602 12.68016,15.337158 14.00837,14.00837 C15.337158,12.680245 16.08356,10.87867 16.08356,9 C16.08356,7.12133 15.337158,5.31984 14.00837,3.99163 C12.680245,2.662842 10.87867,1.91644 9,1.91644 Z M10.57981,11.62038 L8.50462,9.53856 L8.5039553,9.5392247 C8.3578607,9.3951225 8.2801673,9.1959097 8.2914553,8.9907027 L8.2914553,5.4586127 C8.2914553,5.0674767 8.6088793,4.7500527 9.0000153,4.7500527 C9.3911513,4.7500527 9.7085753,5.0674767 9.7085753,5.4586127 L9.7085753,8.6680427 L11.6210753,10.5805427 C11.9079503,10.8680807 11.9079503,11.3342547 11.6204123,11.6211297 C11.3328743,11.9086677 10.8667003,11.9086677 10.5798253,11.6211297 L10.57981,11.62038 Z" id="Fill-1" stroke="#030303" stroke-width="0.6" fill="#030303"></path>
    </g>
</svg>