<?xml version="1.0" encoding="UTF-8"?>
<svg width="48px" height="48px" viewBox="0 0 48 48" version="1.1" xmlns="http://www.w3.org/2000/svg" xmlns:xlink="http://www.w3.org/1999/xlink">
    <title>Icon/logout</title>
    <g id="Icon/logout" stroke="none" stroke-width="1" fill="none" fill-rule="evenodd">
        <circle id="BG" stroke="#CCCCCC" cx="24" cy="24" r="23.5"></circle>
        <path d="M35.5655689,24.9728571 L30.5528955,29.747619 C29.1676755,31.090619 27.0898209,29.0760952 28.475041,27.7330952 L30.1663897,26.0980476 C30.5509656,25.7260238 30.4246839,25.4246667 29.8813079,25.4246667 L23.1425586,25.4246667 C22.338983,25.4246667 21.6769614,24.7866667 21.6769614,23.9998095 C21.6769614,23.2148571 22.3332033,22.5749524 23.1425586,22.5749524 L29.8813079,22.5749524 C30.4208781,22.5749524 30.5528808,22.2736143 30.1663897,21.9015714 L28.475041,20.2665238 C27.0898209,18.9235238 29.1676755,16.909 30.5528955,18.252 L35.5601811,22.9767143 C36.145646,23.5291905 36.145646,24.4201429 35.5659216,24.972619 L35.5655689,24.9728571 Z M17.4305514,31.1428571 L20.3674765,31.1428571 C21.178693,31.1428571 21.8368942,31.7827619 21.8368942,32.5714286 C21.8368942,33.3600952 21.178693,34 20.3674765,34 L15.9573133,34 C14.8744015,34 14,33.140619 14,32.0952381 L14,15.9047619 C14,14.8538095 14.8801322,14 15.9573133,14 L20.3674765,14 C21.178693,14 21.8368942,14.6399048 21.8368942,15.4285714 C21.8368942,16.2172381 21.178693,16.8571429 20.3674765,16.8571429 L17.4305514,16.8571429 C17.1531205,16.8571429 16.9388353,17.0691952 16.9388353,17.3314714 L16.9388353,30.6667095 C16.9388353,30.9289857 17.1588659,31.1429 17.4305514,31.1429 L17.4305514,31.1428571 Z" id="Fill-1" fill="#030303"></path>
    </g>
</svg>