<?xml version="1.0" encoding="UTF-8"?>
<svg width="20px" height="20px" viewBox="0 0 20 20" version="1.1" xmlns="http://www.w3.org/2000/svg" xmlns:xlink="http://www.w3.org/1999/xlink">
    <title>Icon/menu-sm</title>
    <g id="Icon/menu-sm" stroke="none" stroke-width="1" fill="none" fill-rule="evenodd">
        <path d="M0.836494106,4.68501426 L13.1635059,4.68501426 C13.6240048,4.68501426 14,4.08455781 14,3.34250713 C14,2.60045645 13.62626,2 13.1635059,2 L0.836494106,2 C0.375995216,2 -2.84217094e-14,2.60045645 -2.84217094e-14,3.34250713 C0.00222677829,4.08457795 0.375966741,4.68501426 0.836494106,4.68501426 Z M18.9054749,8.68501426 L1.09452509,8.68501426 C0.489526347,8.68501426 0,9.28547072 0,10.0275214 C0,10.7695721 0.489542765,11.3700285 1.09452509,11.3700285 L18.9054749,11.3700285 C19.5104737,11.3700285 20,10.7695721 20,10.0275214 C20,9.28806847 19.5104572,8.68501426 18.9054749,8.68501426 Z M6.78769659,15 C6.35406125,15 6,15.6004565 6,16.3425071 C6,17.0845578 6.35193756,17.6850143 6.78769659,17.6850143 L19.2122402,17.6850143 C19.6458756,17.6850143 20,17.0845578 20,16.3425071 C20.0020337,15.6004363 19.6479992,15 19.2143854,15 L6.78769659,15 Z" id="Combined-Shape" fill="#030303"></path>
    </g>
</svg>