<?xml version="1.0" encoding="UTF-8"?>
<svg width="30px" height="30px" viewBox="0 0 30 30" version="1.1" xmlns="http://www.w3.org/2000/svg" xmlns:xlink="http://www.w3.org/1999/xlink">
    <title>Icon/notice</title>
    <g id="Icon/notice" stroke="none" stroke-width="1" fill="none" fill-rule="evenodd">
        <path d="M25.6963295,21.5968338 L17.4419476,7.13436549 C17.0110024,6.37781957 16.2550441,6 15.5,6 C14.7449662,6 13.9890078,6.37781957 13.5580626,7.13436549 L5.30368003,21.5968338 C4.44089326,23.1090188 5.51915264,25 7.24562324,25 L23.754387,25 C25.4808569,25 26.5590933,23.1090886 25.6963295,21.5968338 Z M15.5000511,22.3788157 C14.8913496,22.3788157 14.3975439,21.8793033 14.3975439,21.2635155 C14.3975439,20.647751 14.8913266,20.1482154 15.5000511,20.1482154 C16.1087756,20.1482154 16.6025583,20.6477278 16.6025583,21.2635155 C16.6025583,21.8792801 16.1087756,22.3788157 15.5000511,22.3788157 Z M16.6025583,13.6726902 C16.6025583,13.6799559 16.6025583,13.6872217 16.6016597,13.6953965 L16.100683,18.9348821 C16.0890118,19.0538593 15.990253,19.1446801 15.8717442,19.1446801 L15.1355519,19.1446801 C15.0170431,19.1446801 14.9182843,19.0538593 14.9066131,18.9348821 L14.3984655,13.6953965 C14.3975692,13.6881308 14.3975692,13.6799559 14.3975692,13.6726902 L14.3975692,11.3912412 C14.3975692,11.2631824 14.5008167,11.1587368 14.6274066,11.1587368 L16.3736425,11.1587368 C16.5002324,11.1587368 16.60348,11.2631824 16.60348,11.3912412 L16.6025583,13.6726902 Z" id="Fill-1" fill="#030303"></path>
    </g>
</svg>