<?xml version="1.0" encoding="UTF-8"?>
<svg width="18px" height="18px" viewBox="0 0 18 18" version="1.1" xmlns="http://www.w3.org/2000/svg" xmlns:xlink="http://www.w3.org/1999/xlink">
    <title>Icon/password-hide</title>
    <g id="Icon/password-hide" stroke="none" stroke-width="1" fill="none" fill-rule="evenodd">
        <path d="M2.51213592,13.2915939 C2.73058252,13.4881959 2.97087379,13.6629532 3.18932039,13.8377104 L2.0315534,14.9954774 C1.7038835,15.3013027 1.68203883,15.8255745 1.98786408,16.1532444 C2.29368932,16.4809143 2.81796117,16.502759 3.14563107,16.1969337 C3.16747573,16.1750891 3.16747573,16.1750891 3.18932039,16.1532444 L4.6092233,14.7114968 C5.96359223,15.3886813 7.47087379,15.7600405 8.97815534,15.7600405 C11.3592233,15.7381959 13.6747573,14.8862541 15.4660194,13.3134386 C16.973301,12.0246036 18,10.3862541 18,9.20664247 C18,8.02703082 16.973301,6.41052597 15.4878641,5.12169101 C15.2694175,4.92508907 15.0291262,4.75033179 14.788835,4.57557451 L15.9466019,3.41780752 C16.2742718,3.11198228 16.2961165,2.58771043 15.9902913,2.26004053 C15.684466,1.93237063 15.1601942,1.91052597 14.8325243,2.21635121 C14.8106796,2.23819587 14.8106796,2.23819587 14.788835,2.26004053 L13.368932,3.67994344 C12.0145631,3.00275898 10.5072816,2.65324441 9,2.65324441 C6.61893204,2.65324441 4.30339806,3.52703082 2.51213592,5.12169101 C1.00485437,6.41052597 0,8.04887548 0,9.20664247 C0,10.3644095 1.00485437,12.002759 2.51213592,13.2915939 Z M13.631068,5.7333415 C13.9150485,5.92994344 14.1771845,6.12654538 14.4174757,6.34499199 C15.5970874,7.37169101 16.3616505,8.61683665 16.3616505,9.20664247 C16.3616505,9.7964483 15.5752427,11.0415939 14.3956311,12.068293 C12.9101942,13.3789726 10.9878641,14.121691 8.97815534,14.121691 C7.90776699,14.121691 6.83737864,13.9032444 5.85436893,13.4881959 L7.92961165,11.4129532 C9.15291262,12.002759 10.6165049,11.4784871 11.2063107,10.2551862 C11.5339806,9.57800169 11.5339806,8.81343859 11.2063107,8.13625412 L13.631068,5.7333415 Z M3.58252427,6.34499199 C5.08980583,5.03431237 7.01213592,4.29159393 9,4.29159393 C10.0703883,4.29159393 11.1407767,4.51004053 12.1237864,4.92508907 L10.0485437,7.00033179 C8.82524272,6.41052597 7.36165049,6.93479781 6.77184466,8.15809878 C6.44417476,8.83528325 6.44417476,9.59984635 6.77184466,10.2770308 L4.36893204,12.6799434 C4.08495146,12.4833415 3.82281553,12.2867396 3.58252427,12.068293 C2.40291262,11.0415939 1.61650485,9.7964483 1.61650485,9.20664247 C1.61650485,8.61683665 2.40291262,7.37169101 3.58252427,6.34499199 L3.58252427,6.34499199 Z" id="Shape" fill="#030303" fill-rule="nonzero"></path>
    </g>
</svg>