<?xml version="1.0" encoding="UTF-8"?>
<svg width="18px" height="18px" viewBox="0 0 18 18" version="1.1" xmlns="http://www.w3.org/2000/svg" xmlns:xlink="http://www.w3.org/1999/xlink">
    <title>Icon/password-show</title>
    <g id="Icon/password-show" stroke="none" stroke-width="1" fill="none" fill-rule="evenodd">
        <path d="M2.53090909,5.36363636 C6.24,2.09090909 11.7818182,2.09090909 15.4909091,5.36363636 C16.9745455,6.65090909 18,8.26545455 18,9.44363636 C18,10.6218182 16.9745455,12.2581818 15.4690909,13.5454545 C11.76,16.8181818 6.21818182,16.8181818 2.50909091,13.5454545 C1.00363636,12.2581818 0,10.6218182 0,9.46545455 C0,8.30909091 1.00363636,6.67272727 2.53090909,5.36363636 Z M14.4,6.60727273 C11.3236364,3.85818182 6.67636364,3.85818182 3.57818182,6.60727273 C2.4,7.63272727 1.59272727,8.87636364 1.59272727,9.46545455 C1.59272727,10.0545455 2.37818182,11.2981818 3.55636364,12.3236364 C6.63272727,15.0727273 11.3018182,15.0727273 14.3781818,12.3236364 C15.5563636,11.2981818 16.3418182,10.0545455 16.3418182,9.46545455 C16.3418182,8.87636364 15.5781818,7.63272727 14.4,6.60727273 Z M8.98909091,6.19272727 C10.8,6.19272727 12.2618182,7.65454545 12.2618182,9.46545455 C12.2618182,11.2763636 10.8,12.7381818 8.98909091,12.7381818 C7.17818182,12.7381818 5.71636364,11.2763636 5.71636364,9.46545455 C5.71636364,7.65454545 7.17818182,6.19272727 8.98909091,6.19272727 Z M9.05454545,7.82909091 L8.98909091,7.82909091 C8.09454545,7.82909091 7.33090909,8.57090909 7.33090909,9.46545455 C7.33090909,10.36 8.07272727,11.1018182 8.96727273,11.1018182 C9.86181818,11.1018182 10.6036364,10.36 10.6036364,9.46545455 L10.6036364,9.4 C10.3418182,9.48727273 10.0581818,9.48727273 9.79636364,9.4 C9.16363636,9.16 8.83636364,8.46181818 9.05454545,7.82909091 Z" id="Combined-Shape" fill="#030303" fill-rule="nonzero"></path>
    </g>
</svg>