<?xml version="1.0" encoding="UTF-8"?>
<svg width="40px" height="40px" viewBox="0 0 40 40" version="1.1" xmlns="http://www.w3.org/2000/svg" xmlns:xlink="http://www.w3.org/1999/xlink">
    <title>Icon/wallet_metamask</title>
    <defs>
        <circle id="path-1" cx="20" cy="20" r="20"></circle>
    </defs>
    <g id="Iconography" stroke="none" stroke-width="1" fill="none" fill-rule="evenodd">
        <g id="Icon">
            <mask id="mask-2" fill="white">
                <use xlink:href="#path-1"></use>
            </mask>
            <g id="Oval"></g>
            <g id="metamask-fox" mask="url(#mask-2)" stroke-linecap="round" stroke-linejoin="round">
                <g transform="translate(4.000000, 6.000000)">
                    <polygon id="Path" stroke="#E2761B" fill="#E2761B" fill-rule="nonzero" points="30.4062745 0 17.92 9.37817259 20.2290196 3.84517766"></polygon>
                    <g id="Group" stroke="none" fill="none" fill-rule="evenodd" transform="translate(0.263529, 0.000000)">
                        <polygon id="Path" stroke="#E4761B" fill="#E4761B" fill-rule="nonzero" points="1.31764706 0 13.7035294 9.46700508 11.507451 3.84517766"></polygon>
                        <polygon id="Path" stroke="#E4761B" fill="#E4761B" fill-rule="nonzero" points="25.6501961 21.7385787 22.3247059 26.8908629 29.44 28.8705584 31.4854902 21.8527919"></polygon>
                        <polygon id="Path" stroke="#E4761B" fill="#E4761B" fill-rule="nonzero" points="0 21.8527919 2.03294118 28.8705584 9.14823529 26.8908629 5.8227451 21.7385787"></polygon>
                        <polygon id="Path" stroke="#E4761B" fill="#E4761B" fill-rule="nonzero" points="8.74666667 13.0329949 6.76392157 16.0659898 13.8290196 16.3832487 13.5780392 8.70558376"></polygon>
                        <polygon id="Path" stroke="#E4761B" fill="#E4761B" fill-rule="nonzero" points="22.7137255 13.0329949 17.8196078 8.61675127 17.6564706 16.3832487 24.7090196 16.0659898"></polygon>
                        <polygon id="Path" stroke="#E4761B" fill="#E4761B" fill-rule="nonzero" points="9.14823529 26.8908629 13.3898039 24.7969543 9.7254902 21.9035533"></polygon>
                        <polygon id="Path" stroke="#E4761B" fill="#E4761B" fill-rule="nonzero" points="18.0705882 24.7969543 22.3247059 26.8908629 21.734902 21.9035533"></polygon>
                    </g>
                    <g id="Group" stroke="none" fill="none" fill-rule="evenodd" transform="translate(9.411765, 24.796954)">
                        <polygon id="Path" stroke="#D7C1B3" fill="#D7C1B3" fill-rule="nonzero" points="13.1764706 2.09390863 8.92235294 0 9.26117647 2.80456853 9.22352941 3.98477157"></polygon>
                        <polygon id="Path" stroke="#D7C1B3" fill="#D7C1B3" fill-rule="nonzero" points="0 2.09390863 3.95294118 3.98477157 3.92784314 2.80456853 4.24156863 0"></polygon>
                    </g>
                    <polygon id="Path" stroke="#233447" fill="#233447" fill-rule="nonzero" points="13.427451 20.0507614 9.88862745 18.9974619 12.3858824 17.8426396"></polygon>
                    <polygon id="Path" stroke="#233447" fill="#233447" fill-rule="nonzero" points="18.56 20.0507614 19.6015686 17.8426396 22.1113725 18.9974619"></polygon>
                    <g id="Group" stroke="none" fill="none" fill-rule="evenodd" transform="translate(6.086275, 16.065990)">
                        <polygon id="Path" stroke="#CD6116" fill="#CD6116" fill-rule="nonzero" points="3.3254902 10.8248731 3.92784314 5.67258883 0 5.78680203"></polygon>
                        <polygon id="Path" stroke="#CD6116" fill="#CD6116" fill-rule="nonzero" points="15.8996078 5.67258883 16.5019608 10.8248731 19.827451 5.78680203"></polygon>
                        <polygon id="Path" stroke="#CD6116" fill="#CD6116" fill-rule="nonzero" points="18.8862745 0 11.8337255 0.317258883 12.4862745 3.98477157 13.5278431 1.77664975 16.0376471 2.93147208"></polygon>
                        <polygon id="Path" stroke="#CD6116" fill="#CD6116" fill-rule="nonzero" points="3.80235294 2.93147208 6.31215686 1.77664975 7.34117647 3.98477157 8.00627451 0.317258883 0.941176471 0"></polygon>
                    </g>
                    <g id="Group" stroke="none" fill="none" fill-rule="evenodd" transform="translate(7.027451, 16.065990)">
                        <polygon id="Path" stroke="#E4751F" fill="#E4751F" fill-rule="nonzero" points="0 0 2.96156863 5.83756345 2.86117647 2.93147208"></polygon>
                        <polygon id="Path" stroke="#E4751F" fill="#E4751F" fill-rule="nonzero" points="15.0964706 2.93147208 14.9709804 5.83756345 17.945098 0"></polygon>
                        <polygon id="Path" stroke="#E4751F" fill="#E4751F" fill-rule="nonzero" points="7.06509804 0.317258883 6.4 3.98477157 7.22823529 8.31218274 7.41647059 2.6142132"></polygon>
                        <polygon id="Path" stroke="#E4751F" fill="#E4751F" fill-rule="nonzero" points="10.892549 0.317258883 10.5537255 2.60152284 10.7043137 8.31218274 11.545098 3.98477157"></polygon>
                    </g>
                    <polygon id="Path" stroke="#F6851B" fill="#F6851B" fill-rule="nonzero" points="18.572549 20.0507614 17.7317647 24.3781726 18.3341176 24.7969543 21.9984314 21.9035533 22.1239216 18.9974619"></polygon>
                    <polygon id="Path" stroke="#F6851B" fill="#F6851B" fill-rule="nonzero" points="9.88862745 18.9974619 9.98901961 21.9035533 13.6533333 24.7969543 14.2556863 24.3781726 13.427451 20.0507614"></polygon>
                    <polygon id="Path" stroke="#C0AD9E" fill="#C0AD9E" fill-rule="nonzero" points="18.6352941 28.7817259 18.6729412 27.6015228 18.3592157 27.322335 13.6282353 27.322335 13.3396078 27.6015228 13.3647059 28.7817259 9.41176471 26.8908629 10.7921569 28.0329949 13.5905882 30 18.3968627 30 21.2078431 28.0329949 22.5882353 26.8908629"></polygon>
                    <polygon id="Path" stroke="#161616" fill="#161616" fill-rule="nonzero" points="18.3341176 24.7969543 17.7317647 24.3781726 14.2556863 24.3781726 13.6533333 24.7969543 13.3396078 27.6015228 13.6282353 27.322335 18.3592157 27.322335 18.6729412 27.6015228"></polygon>
                    <g id="Group" stroke="none" fill="none" fill-rule="evenodd">
                        <polygon id="Path" stroke="#763D16" fill="#763D16" fill-rule="nonzero" points="30.9333333 9.98730964 32 4.80964467 30.4062745 0 18.3341176 9.06091371 22.9772549 13.0329949 29.5403922 14.9746193 30.9960784 13.2614213 30.3686275 12.8045685 31.372549 11.8781726 30.5945098 11.2690355 31.5984314 10.4949239"></polygon>
                        <polygon id="Path" stroke="#763D16" fill="#763D16" fill-rule="nonzero" points="0 4.80964467 1.06666667 9.98730964 0.389019608 10.4949239 1.39294118 11.2690355 0.62745098 11.8781726 1.63137255 12.8045685 1.00392157 13.2614213 2.44705882 14.9746193 9.01019608 13.0329949 13.6533333 9.06091371 1.58117647 0"></polygon>
                    </g>
                    <polygon id="Path" stroke="#F6851B" fill="#F6851B" fill-rule="nonzero" points="29.5403922 14.9746193 22.9772549 13.0329949 24.972549 16.0659898 21.9984314 21.9035533 25.9137255 21.8527919 31.7490196 21.8527919"></polygon>
                    <polygon id="Path" stroke="#F6851B" fill="#F6851B" fill-rule="nonzero" points="9.01019608 13.0329949 2.44705882 14.9746193 0.263529412 21.8527919 6.08627451 21.8527919 9.98901961 21.9035533 7.02745098 16.0659898"></polygon>
                    <polygon id="Path" stroke="#F6851B" fill="#F6851B" fill-rule="nonzero" points="17.92 16.3832487 18.3341176 9.06091371 20.2415686 3.84517766 11.7709804 3.84517766 13.6533333 9.06091371 14.092549 16.3832487 14.2431373 18.6928934 14.2556863 24.3781726 17.7317647 24.3781726 17.7568627 18.6928934"></polygon>
                </g>
            </g>
        </g>
    </g>
</svg>