<?xml version="1.0" encoding="UTF-8"?>
<svg width="18px" height="18px" viewBox="0 0 18 18" version="1.1" xmlns="http://www.w3.org/2000/svg" xmlns:xlink="http://www.w3.org/1999/xlink">
    <title>Icon/win-past-rounds</title>
    <g id="Icon/win-past-rounds" stroke="none" stroke-width="1" fill="none" fill-rule="evenodd">
        <path d="M6.06359866,2.05963593 C8.08383396,1.26098539 10.3060928,1.32753961 12.2589869,2.19274435 C14.2787912,3.05762964 15.6256147,4.65493072 16.4337088,6.65155706 C17.241803,8.6481834 17.1745695,10.8443659 16.2990265,12.7745445 C15.4234835,14.7047231 13.8747441,16.1689158 11.8545089,16.9675663 C10.9116246,17.3003374 9.96884817,17.5 8.95873052,17.5 C7.00572866,17.5 5.12017572,16.8344579 3.63866984,15.5699279 C2.69600111,14.7712773 1.88790699,13.6397493 1.41651876,12.4417734 C1.28183641,12.1090024 1.48385994,11.7096771 1.82056582,11.5765687 C2.1572717,11.4434603 2.56131876,11.6431229 2.69600111,11.975894 C3.10004817,12.9743136 3.77345993,13.8395184 4.58155405,14.5716147 C6.46710699,16.23547 9.09330513,16.6347953 11.450354,15.7695905 C13.1339912,15.1042614 14.4134736,13.9060726 15.1542265,12.2423238 C15.8949794,10.578575 15.9621051,8.78171777 15.2889089,7.117756 C14.6157126,5.45379423 13.3361225,4.18926421 11.7199342,3.45716788 C10.0365126,2.72507156 8.21830082,2.65851735 6.53477141,3.32405946 C5.45731258,3.72338473 4.58187729,4.38892684 3.84112435,5.25413159 L4.98592435,4.98791475 C5.32263023,4.85480632 5.72667729,5.05446896 5.72667729,5.45379423 C5.86135964,5.78656528 5.59199494,6.18589055 5.25528905,6.25244476 L2.49440857,6.91798688 L2.35972621,6.91798688 C2.02302033,6.91798688 1.75365563,6.71832424 1.68631445,6.38555318 L1.01290268,3.656937 C0.945561508,3.32416595 1.14758504,2.99139489 1.48429092,2.85828647 C1.88833798,2.79173226 2.22504386,2.99139489 2.29238504,3.39072016 L2.62909092,4.58869596 C3.50463396,3.45727437 4.71677513,2.59206962 6.06359866,2.05963593 Z M9.02661043,5.52034844 C9.43065748,5.52034844 9.70002219,5.78656528 9.70002219,6.18589055 L9.70002219,9.84647866 L12.1243045,11.6434424 C12.3936692,11.843105 12.4610104,12.3089845 12.2589869,12.5752013 C12.1243045,12.774864 11.922281,12.8414182 11.7202575,12.8414182 C11.5855751,12.8414182 11.4508928,12.774864 11.3162104,12.7083098 L8.62256337,10.7116834 C8.42053984,10.578575 8.35319866,10.3789124 8.35319866,10.1792497 L8.35319866,6.18599704 C8.35319866,5.78667177 8.62256337,5.52045492 9.02661043,5.52045492 Z" id="Combined-Shape" stroke="#030303" stroke-width="0.5" fill="#030303"></path>
    </g>
</svg>