<?xml version="1.0" encoding="UTF-8"?>
<svg width="18px" height="18px" viewBox="0 0 18 18" version="1.1" xmlns="http://www.w3.org/2000/svg" xmlns:xlink="http://www.w3.org/1999/xlink">
    <title>Icon/win-cancelled</title>
    <g id="Icon/win-cancelled" stroke="none" stroke-width="1" fill="none" fill-rule="evenodd">
        <circle id="Oval" fill="#F7EDF3" cx="9" cy="9" r="9"></circle>
        <path d="M9,3 C5.69065263,3 3,5.69065263 3,9 C3,12.3093474 5.69065263,15 9,15 C12.3093474,15 15,12.3093474 15,9 C15,5.69065263 12.3093474,3 9,3 Z M4.33914947,9 C4.33914947,6.42341053 6.43629474,4.3392 9,4.3392 C10.0485221,4.3392 11.0081684,4.69298526 11.7918316,5.27373474 L5.27368421,11.7918821 C4.68010105,11.0083326 4.33914947,10.0485979 4.33914947,9.00005053 L4.33914947,9 Z M9,13.6608 C7.95147789,13.6608 6.99183158,13.3070147 6.20816842,12.7262653 L12.7263158,6.20811789 C13.3075705,6.99117474 13.6608505,7.95140211 13.6608505,8.99994947 C13.6608505,11.5765389 11.57664,13.6608 9.00005053,13.6608 L9,13.6608 Z" id="Fill-1" fill="#DA1D5B"></path>
    </g>
</svg>