<?xml version="1.0" encoding="UTF-8"?>
<svg width="40px" height="40px" viewBox="0 0 40 40" version="1.1" xmlns="http://www.w3.org/2000/svg" xmlns:xlink="http://www.w3.org/1999/xlink">
    <title>Icon/win-deposit</title>
    <g id="Icon/win-deposit" stroke="none" stroke-width="1" fill="none" fill-rule="evenodd">
        <circle id="BG" fill="#E9F5F1" cx="20" cy="20" r="20"></circle>
        <path d="M26.3466351,11 C26.8510679,11 27.2596159,11.4230606 27.2596159,11.9454122 C27.2596159,12.4677637 26.8510679,12.8908244 26.3466351,12.8908244 L11.7389424,12.8908244 C11.2345095,12.8908244 10.8259616,13.313885 10.8259616,13.8362365 C10.8259616,14.3585881 11.2345095,14.7816487 11.7389424,14.7816487 L27.2596159,14.7816487 C27.7435103,14.7816487 28.207994,14.98135 28.5503516,15.3358871 C28.8927092,15.6904243 29.0855775,16.1714197 29.0855775,16.6724731 L29.0854314,20.0192322 C30.2449316,21.0475381 30.9376518,22.5294301 30.9958547,24.1094634 C31.0551911,25.6881656 30.4753534,27.2208829 29.3958449,28.3388593 C28.3163364,29.4568357 26.8362265,30.0571588 25.311534,29.9957055 C23.7855852,29.9354109 22.3544695,29.2181078 21.3616139,28.0174192 L10.8259616,28.0174192 C10.3420672,28.0174192 9.87758343,27.8177179 9.53522586,27.4631807 C9.19286829,27.1086436 9,26.6276481 9,26.1265948 L9,12.8908244 C9,11.8461515 9.81712511,11 10.8259616,11 Z M26.9812517,20.3321409 C25.4439381,19.685721 23.683156,20.0591664 22.51568,21.278733 C21.348204,22.4985416 21.0035501,24.3254409 21.6414973,25.9101938 C22.2792691,27.4949163 23.7754474,28.5277905 25.4336543,28.5277905 L25.4337419,28.4897622 C26.5235927,28.492122 27.570117,28.0454034 28.3415785,27.2465376 C29.1130399,26.4476719 29.5444372,25.3640027 29.5421645,24.2354074 C29.5273141,22.5184179 28.5173382,20.9785608 26.9812517,20.3321409 Z M25.5,21.8571429 C25.8796958,21.8571429 26.1875,22.1649471 26.1875,22.5446429 L26.187,23.892 L27.5714286,23.8928571 C27.9461932,23.8928571 28.25,24.1966639 28.25,24.5714286 C28.25,24.9461932 27.9461932,25.25 27.5714286,25.25 L26.187,25.249 L26.1875,26.5982143 C26.1875,26.9779101 25.8796958,27.2857143 25.5,27.2857143 C25.1203042,27.2857143 24.8125,26.9779101 24.8125,26.5982143 L24.812,25.249 L23.4285714,25.25 C23.0538068,25.25 22.75,24.9461932 22.75,24.5714286 C22.75,24.1966639 23.0538068,23.8928571 23.4285714,23.8928571 L24.812,23.892 L24.8125,22.5446429 C24.8125,22.1649471 25.1203042,21.8571429 25.5,21.8571429 Z" id="Combined-Shape" fill="#27B088"></path>
    </g>
</svg>