<?xml version="1.0" encoding="UTF-8"?>
<svg width="40px" height="40px" viewBox="0 0 40 40" version="1.1" xmlns="http://www.w3.org/2000/svg" xmlns:xlink="http://www.w3.org/1999/xlink">
    <title>Icon/win-history</title>
    <g id="Icon/win-history" stroke="none" stroke-width="1" fill="none" fill-rule="evenodd">
        <circle id="BG" fill="#030303" cx="20" cy="20" r="20"></circle>
        <path d="M16.6965485,11.6295904 C18.9693132,10.7311086 21.4693544,10.8059821 23.6663603,11.7793374 C25.9386401,12.7523333 27.4538166,14.5492971 28.3629225,16.7955017 C29.2720283,19.0417063 29.1963907,21.5124116 28.2114048,23.6838626 C27.2264189,25.8553135 25.4840872,27.5025302 23.2113225,28.4010121 C22.1505777,28.7753795 21.0899542,29 19.9535718,29 C17.7564447,29 15.6351977,28.2512651 13.9685036,26.8286689 C12.9080013,25.930187 11.9988954,24.6572179 11.4685836,23.3094951 C11.317066,22.9351277 11.5443424,22.4858868 11.9231365,22.3361398 C12.3019307,22.1863928 12.7564836,22.4110133 12.9080013,22.7853807 C13.3625542,23.9086028 14.1201424,24.8819582 15.0292483,25.7055665 C17.1504954,27.5774037 20.1049683,28.0266447 22.7566483,27.0532893 C24.6507401,26.304794 26.0901578,24.9568317 26.9235048,23.0851143 C27.7568519,21.2133969 27.8323683,19.1919325 27.0750225,17.3199755 C26.3176767,15.4480185 24.8781378,14.0254222 23.059926,13.2018139 C21.1660767,12.3782055 19.1205884,12.303332 17.2266178,13.0520669 C16.0144767,13.5013078 15.029612,14.2500427 14.1962649,15.223398 L15.4841649,14.9239041 C15.862959,14.7741571 16.3175119,14.9987776 16.3175119,15.4480185 C16.4690296,15.8223859 16.1659943,16.2716269 15.7872002,16.3465004 L12.6812096,17.0952352 L12.529692,17.0952352 C12.1508979,17.0952352 11.8478626,16.8706148 11.7721038,16.4962473 L11.0145155,13.4265541 C10.9387567,13.0521867 11.1660332,12.6778193 11.5448273,12.5280723 C11.9993802,12.4531988 12.3781743,12.6778193 12.4539332,13.1270602 L12.8327273,14.474783 C13.8177132,13.2019337 15.181372,12.2285783 16.6965485,11.6295904 Z M20.0299367,15.522892 C20.4844897,15.522892 20.787525,15.8223859 20.787525,16.2716269 L20.787525,20.3897885 L23.5148426,22.4113727 C23.8178779,22.6359931 23.8936367,23.1601075 23.6663603,23.4596015 C23.5148426,23.684222 23.2875661,23.7590954 23.0602897,23.7590954 C22.908772,23.7590954 22.7572544,23.684222 22.6057367,23.6093485 L19.5753838,21.3631438 C19.3481073,21.2133969 19.2723485,20.9887764 19.2723485,20.7641559 L19.2723485,16.2717467 C19.2723485,15.8225057 19.5753838,15.5230118 20.0299367,15.5230118 Z" id="Combined-Shape" stroke="#FFFFFF" stroke-width="0.2" fill="#FFFFFF"></path>
    </g>
</svg>