<?xml version="1.0" encoding="UTF-8"?>
<svg width="18px" height="18px" viewBox="0 0 18 18" version="1.1" xmlns="http://www.w3.org/2000/svg" xmlns:xlink="http://www.w3.org/1999/xlink">
    <title>Icon/win-wallet</title>
    <g id="Icon/win-wallet" stroke="none" stroke-width="1" fill="none" fill-rule="evenodd" stroke-linecap="round" stroke-linejoin="round">
        <path d="M12.5555556,5.71525914 L12.5555556,2.6776169 C12.5555556,1.95561752 12.5555556,1.59461782 12.3998222,1.37276799 C12.2637333,1.1789391 12.0529778,1.04726323 11.8158222,1.00784467 C11.5442667,0.962722962 11.2086222,1.1139996 10.5373333,1.41656156 L2.65245333,4.97045584 C2.05378667,5.24029198 1.75444444,5.37521439 1.53520889,5.58446001 C1.34138667,5.76944338 1.19344,5.99525157 1.10266667,6.24462755 C1,6.52671201 1,6.8486664 1,7.49258388 L1,11.791646 M1,8.49302187 L1,14.2222112 C1,15.1945241 1,15.6807239 1.19376889,16.0520796 C1.36420444,16.3787302 1.63616889,16.6443562 1.97068444,16.8107631 C2.35096889,17 2.84879111,17 3.84444444,17 L14.1555556,17 C15.1512,17 15.6490667,17 16.0293333,16.8107631 C16.3638222,16.6443562 16.6358222,16.3787302 16.8062222,16.0520796 C17,15.6807239 17,15.1945241 17,14.2222112 L17,8.49302187 C17,7.520709 17,7.03456992 16.8062222,6.66319692 C16.6358222,6.33652028 16.3638222,6.07092895 16.0293333,5.90448732 C15.6490667,5.71525914 15.1512,5.71525914 14.1555556,5.71525914 L3.84444444,5.71525914 C2.8488,5.71525914 2.35096889,5.71525914 1.97068444,5.90447864 C1.63617778,6.07092895 1.36420444,6.33652028 1.19376889,6.66319692 C1,7.03456992 1,7.520709 1,8.49302187 Z M13.4444444,11.3576165 C13.4444444,11.5973744 13.2454222,11.791646 13,11.791646 C12.7545778,11.791646 12.5555556,11.5973744 12.5555556,11.3576165 C12.5555556,11.1179455 12.7545778,10.9235871 13,10.9235871 C13.2454222,10.9235871 13.4444444,11.1179455 13.4444444,11.3576165 Z" id="Shape" stroke="#030303" stroke-width="1.8"></path>
    </g>
</svg>