<?xml version="1.0" encoding="UTF-8"?>
<svg width="18px" height="18px" viewBox="0 0 18 18" version="1.1" xmlns="http://www.w3.org/2000/svg" xmlns:xlink="http://www.w3.org/1999/xlink">
    <title>Icon/win-passcode</title>
    <g id="Icon/win-passcode" stroke="none" stroke-width="1" fill="none" fill-rule="evenodd">
        <path d="M17,7.875 L17,5.6 C17,4.68991875 17,4.23487 16.8256,3.88726625 C16.67224,3.58149813 16.42744,3.33290562 16.1264,3.17711688 C15.78416,3 15.33608,3 14.44,3 L3.56,3 C2.66392,3 2.215872,3 1.873616,3.17711688 C1.572552,3.33290562 1.327784,3.58149813 1.174392,3.88726625 C1,4.23487 1,4.68991875 1,5.6 L1,8.525 C1,9.43508125 1,9.8901625 1.174392,10.23775 C1.327784,10.5434937 1.572552,10.7921188 1.873616,10.947875 C2.215872,11.125 2.66392,11.125 3.56,11.125 L8.2,11.125 M14.8,12.75 L14.8,11.328125 C14.8,10.5428437 14.1732,9.90625 13.4,9.90625 C12.6268,9.90625 12,10.5428437 12,11.328125 L12,12.75 M11.88,16 L14.92,16 C15.36808,16 15.59208,16 15.7632,15.9114375 C15.91376,15.8335188 16.03608,15.7092875 16.1128,15.556375 C16.2,15.3825813 16.2,15.1550813 16.2,14.7 L16.2,14.05 C16.2,13.5949187 16.2,13.3674187 16.1128,13.193625 C16.03608,13.0407125 15.91376,12.9164812 15.7632,12.8385625 C15.59208,12.75 15.36808,12.75 14.92,12.75 L11.88,12.75 C11.43192,12.75 11.20792,12.75 11.0368,12.8385625 C10.88624,12.9164812 10.76392,13.0407125 10.6872,13.193625 C10.6,13.3674187 10.6,13.5949187 10.6,14.05 L10.6,14.7 C10.6,15.1550813 10.6,15.3825813 10.6872,15.556375 C10.76392,15.7092875 10.88624,15.8335188 11.0368,15.9114375 C11.20792,16 11.43192,16 11.88,16 Z" id="Shape" stroke="#030303" stroke-width="1.8" stroke-linecap="round" stroke-linejoin="round"></path>
        <path d="M6,8 C6.55228475,8 7,7.55228475 7,7 C7,6.44771525 6.55228475,6 6,6 C5.44771525,6 5,6.44771525 5,7 C5,7.55228475 5.44771525,8 6,8 Z M9,8 C9.55228475,8 10,7.55228475 10,7 C10,6.44771525 9.55228475,6 9,6 C8.44771525,6 8,6.44771525 8,7 C8,7.55228475 8.44771525,8 9,8 Z M12,8 C12.5522847,8 13,7.55228475 13,7 C13,6.44771525 12.5522847,6 12,6 C11.4477153,6 11,6.44771525 11,7 C11,7.55228475 11.4477153,8 12,8 Z" id="Combined-Shape" fill="#030303"></path>
    </g>
</svg>