<?xml version="1.0" encoding="UTF-8"?>
<svg width="40px" height="40px" viewBox="0 0 40 40" version="1.1" xmlns="http://www.w3.org/2000/svg" xmlns:xlink="http://www.w3.org/1999/xlink">
    <title>Icon/win-winnings</title>
    <g id="Icon/win-winnings" stroke="none" stroke-width="1" fill="none" fill-rule="evenodd">
        <circle id="BG" fill="#030303" cx="20" cy="20" r="20"></circle>
        <path d="M20,23 C16.68629,23 14,20.3137 14,17 L14,11.44444 C14,11.0306 14,10.82367 14.06031,10.65798 C14.16141,10.38021 14.38021,10.16141 14.65798,10.06031 C14.82367,10 15.0306,10 15.44444,10 L24.5556,10 C24.9694,10 25.1763,10 25.342,10.06031 C25.6198,10.16141 25.8386,10.38021 25.9397,10.65798 C26,10.82367 26,11.0306 26,11.44444 L26,17 C26,20.3137 23.3137,23 20,23 Z M20,23 L20,26 M26,12 L28.5,12 C28.9659,12 29.1989,12 29.3827,12.07612 C29.6277,12.17761 29.8224,12.37229 29.9239,12.61732 C30,12.80109 30,13.03406 30,13.5 L30,14 C30,14.92997 30,15.39496 29.8978,15.77646 C29.6204,16.81173 28.8117,17.62038 27.7765,17.89778 C27.395,18 26.93,18 26,18 M14,12 L11.5,12 C11.03406,12 10.80109,12 10.61732,12.07612 C10.37229,12.17761 10.17761,12.37229 10.07612,12.61732 C10,12.80109 10,13.03406 10,13.5 L10,14 C10,14.92997 10,15.39496 10.10222,15.77646 C10.37962,16.81173 11.18827,17.62038 12.22354,17.89778 C12.60504,18 13.07003,18 14,18 M15.44444,30 L24.5556,30 C24.801,30 25,29.801 25,29.5556 C25,27.5919 23.4081,26 21.4444,26 L18.5556,26 C16.59188,26 15,27.5919 15,29.5556 C15,29.801 15.19898,30 15.44444,30 Z" id="Shape" stroke="#FFFFFF" stroke-width="1.6" stroke-linecap="round" stroke-linejoin="round"></path>
    </g>
</svg>