<?xml version="1.0" encoding="UTF-8"?>
<svg width="18px" height="18px" viewBox="0 0 18 18" version="1.1" xmlns="http://www.w3.org/2000/svg" xmlns:xlink="http://www.w3.org/1999/xlink">
    <title>Icon/win-private-key</title>
    <g id="Icon/win-private-key" stroke="none" stroke-width="1" fill="none" fill-rule="evenodd" stroke-linecap="round" stroke-linejoin="round">
        <path d="M13.4444444,6.33328 C13.4444444,5.87832889 13.2708444,5.42337778 12.9237333,5.07625778 C12.5766222,4.72912 12.1216,4.55555556 11.6666667,4.55555556 M11.6666667,11.6666667 C14.6121778,11.6666667 17,9.27884444 17,6.33333333 C17,3.38781333 14.6121778,1 11.6666667,1 C8.72115556,1 6.33333333,3.38781333 6.33333333,6.33333333 C6.33333333,6.57660444 6.34961778,6.81607111 6.38116444,7.05070222 C6.43304889,7.43662222 6.45898667,7.6296 6.44152889,7.75164444 C6.42333333,7.87884444 6.40017778,7.94728889 6.33750222,8.05946667 C6.27733333,8.16711111 6.17129778,8.27315556 5.95922667,8.48524444 L1.41656,13.0279111 C1.26282667,13.1816 1.18595556,13.2584889 1.13098667,13.3481778 C1.08224889,13.4277333 1.04633778,13.5144 1.02456,13.6051556 C1,13.7074667 1,13.8161778 1,14.0335111 L1,15.5777778 C1,16.0756444 1,16.3245333 1.09688,16.5146667 C1.18210667,16.6819556 1.31808889,16.8178667 1.48534222,16.9031111 C1.67548444,17 1.9244,17 2.42222222,17 L4.55555556,17 L4.55555556,15.2222222 L6.33333333,15.2222222 L6.33333333,13.4444444 L8.11111111,13.4444444 L9.51475556,12.0408 C9.72684444,11.8287111 9.83288889,11.7226667 9.94053333,11.6624889 C10.0527111,11.5998222 10.1211556,11.5766222 10.2483556,11.5584889 C10.3704,11.5409778 10.5633778,11.5669333 10.9493333,11.6188444 C11.1839111,11.6504 11.4233778,11.6666667 11.6666667,11.6666667 Z" id="Shape" stroke="#030303" stroke-width="1.8"></path>
    </g>
</svg>