<?xml version="1.0" encoding="UTF-8"?>
<svg width="40px" height="40px" viewBox="0 0 40 40" version="1.1" xmlns="http://www.w3.org/2000/svg" xmlns:xlink="http://www.w3.org/1999/xlink">
    <title>Icon/win-key</title>
    <g id="Icon/win-key" stroke="none" stroke-width="1" fill="none" fill-rule="evenodd">
        <circle id="BG" fill="#030303" cx="20" cy="20" r="20"></circle>
        <path d="M25,16.99994 C25,16.48812 24.8047,15.9763 24.4142,15.58579 C24.0237,15.19526 23.5118,15 23,15 M23,23 C26.3137,23 29,20.3137 29,17 C29,13.68629 26.3137,11 23,11 C19.6863,11 17,13.68629 17,17 C17,17.27368 17.01832,17.54308 17.05381,17.80704 C17.11218,18.2412 17.14136,18.4583 17.12172,18.5956 C17.10125,18.7387 17.0752,18.8157 17.00469,18.9419 C16.937,19.063 16.81771,19.1823 16.57913,19.4209 L11.46863,24.5314 C11.29568,24.7043 11.2092,24.7908 11.14736,24.8917 C11.09253,24.9812 11.05213,25.0787 11.02763,25.1808 C11,25.2959 11,25.4182 11,25.6627 L11,27.4 C11,27.9601 11,28.2401 11.10899,28.454 C11.20487,28.6422 11.35785,28.7951 11.54601,28.891 C11.75992,29 12.03995,29 12.6,29 L15,29 L15,27 L17,27 L17,25 L19,25 L20.5791,23.4209 C20.8177,23.1823 20.937,23.063 21.0581,22.9953 C21.1843,22.9248 21.2613,22.8987 21.4044,22.8783 C21.5417,22.8586 21.7588,22.8878 22.193,22.9462 C22.4569,22.9817 22.7263,23 23,23 Z" id="Shape" stroke="#FFFFFF" stroke-width="1.6" stroke-linecap="round" stroke-linejoin="round"></path>
    </g>
</svg>